<?xml version="1.0" encoding="UTF-8"?> <svg xmlns="http://www.w3.org/2000/svg" width="163" height="23" viewBox="0 0 163 23" fill="none"> <path d="M94.5569 6.90559C94.5569 3.0917 91.4239 0 87.5587 0C85.213 0 83.1427 1.14277 81.8725 2.88946C80.6022 1.14277 78.5319 0 76.1862 0C72.3211 0 69.188 3.091 69.188 6.90559C69.188 7.44582 69.2578 7.96924 69.3764 8.47382C70.3486 14.4312 77.0614 20.7161 81.8725 22.4417C86.6835 20.7161 93.3963 14.4312 94.3666 8.47454C94.4872 7.96996 94.5569 7.44652 94.5569 6.90559Z" fill="#DD2E44"></path> <path d="M5.124 16.084C4.38667 16.084 3.70533 15.9626 3.08 15.72C2.45467 15.468 1.91333 15.118 1.456 14.67C0.998667 14.222 0.639333 13.6946 0.378 13.088C0.126 12.4813 0 11.8186 0 11.1C0 10.3813 0.126 9.71863 0.378 9.11197C0.639333 8.5053 0.998667 7.97797 1.456 7.52997C1.92267 7.08197 2.46867 6.73663 3.094 6.49397C3.71933 6.24197 4.40067 6.11597 5.138 6.11597C5.84733 6.11597 6.51467 6.2373 7.14 6.47997C7.76533 6.7133 8.29267 7.06797 8.722 7.54397L8.064 8.20197C7.66267 7.7913 7.21933 7.4973 6.734 7.31997C6.24867 7.1333 5.726 7.03997 5.166 7.03997C4.578 7.03997 4.032 7.14263 3.528 7.34797C3.024 7.54397 2.58533 7.82863 2.212 8.20197C1.83867 8.56597 1.54467 8.9953 1.33 9.48997C1.12467 9.9753 1.022 10.512 1.022 11.1C1.022 11.688 1.12467 12.2293 1.33 12.724C1.54467 13.2093 1.83867 13.6386 2.212 14.012C2.58533 14.376 3.024 14.6606 3.528 14.866C4.032 15.062 4.578 15.16 5.166 15.16C5.726 15.16 6.24867 15.0666 6.734 14.88C7.21933 14.6933 7.66267 14.3946 8.064 13.984L8.722 14.642C8.29267 15.118 7.76533 15.4773 7.14 15.72C6.51467 15.9626 5.84267 16.084 5.124 16.084Z" fill="white"></path> <path d="M15.308 15.524V9.51797H11.766L11.682 11.156C11.6633 11.6506 11.6307 12.136 11.584 12.612C11.5467 13.088 11.4767 13.5266 11.374 13.928C11.2807 14.32 11.1453 14.642 10.968 14.894C10.7907 15.1366 10.562 15.2766 10.282 15.314L9.28802 15.132C9.57735 15.1413 9.81535 15.0386 10.002 14.824C10.1887 14.6 10.3333 14.2966 10.436 13.914C10.5387 13.5313 10.6133 13.0973 10.66 12.612C10.7067 12.1173 10.744 11.6133 10.772 11.1L10.87 8.64997H16.302V15.524H15.308ZM8.98002 17.778V15.132H17.45V17.778H16.512V16H9.91802V17.778H8.98002Z" fill="white"></path> <path d="M22.5372 16.07C21.7718 16.07 21.0998 15.9113 20.5212 15.594C19.9425 15.2673 19.4898 14.824 19.1632 14.264C18.8365 13.6946 18.6732 13.046 18.6732 12.318C18.6732 11.59 18.8272 10.946 19.1352 10.386C19.4525 9.82597 19.8818 9.3873 20.4232 9.06997C20.9738 8.7433 21.5898 8.57997 22.2712 8.57997C22.9618 8.57997 23.5732 8.73863 24.1052 9.05597C24.6465 9.36397 25.0712 9.80263 25.3792 10.372C25.6872 10.932 25.8412 11.5806 25.8412 12.318C25.8412 12.3646 25.8365 12.416 25.8272 12.472C25.8272 12.5186 25.8272 12.57 25.8272 12.626H19.4292V11.884H25.2952L24.9032 12.178C24.9032 11.646 24.7865 11.1746 24.5532 10.764C24.3292 10.344 24.0212 10.0173 23.6292 9.78397C23.2372 9.55063 22.7845 9.43397 22.2712 9.43397C21.7672 9.43397 21.3145 9.55063 20.9132 9.78397C20.5118 10.0173 20.1992 10.344 19.9752 10.764C19.7512 11.184 19.6392 11.6646 19.6392 12.206V12.36C19.6392 12.92 19.7605 13.4146 20.0032 13.844C20.2552 14.264 20.6005 14.5953 21.0392 14.838C21.4872 15.0713 21.9958 15.188 22.5652 15.188C23.0132 15.188 23.4285 15.1086 23.8112 14.95C24.2032 14.7913 24.5392 14.5486 24.8192 14.222L25.3792 14.866C25.0525 15.258 24.6418 15.5566 24.1472 15.762C23.6618 15.9673 23.1252 16.07 22.5372 16.07Z" fill="white"></path> <path d="M26.5471 15.986L26.6171 15.132C26.6824 15.1413 26.7431 15.1553 26.7991 15.174C26.8644 15.1833 26.9204 15.188 26.9671 15.188C27.2657 15.188 27.5037 15.076 27.6811 14.852C27.8677 14.628 28.0077 14.3293 28.1011 13.956C28.1944 13.5826 28.2597 13.1626 28.2971 12.696C28.3344 12.22 28.3671 11.744 28.3951 11.268L28.5211 8.64997H33.9111V16H32.9171V9.22397L33.1691 9.51797H29.1651L29.4031 9.20997L29.2911 11.338C29.2631 11.9726 29.2117 12.5793 29.1371 13.158C29.0717 13.7366 28.9644 14.2453 28.8151 14.684C28.6751 15.1226 28.4791 15.468 28.2271 15.72C27.9751 15.9626 27.6531 16.084 27.2611 16.084C27.1491 16.084 27.0324 16.0746 26.9111 16.056C26.7991 16.0373 26.6777 16.014 26.5471 15.986Z" fill="white"></path> <path d="M41.3008 16V14.376L41.2588 14.11V11.394C41.2588 10.7686 41.0814 10.288 40.7268 9.95197C40.3814 9.61597 39.8634 9.44797 39.1728 9.44797C38.6968 9.44797 38.2441 9.5273 37.8148 9.68597C37.3854 9.84463 37.0214 10.0546 36.7228 10.316L36.2748 9.57397C36.6481 9.25663 37.0961 9.01397 37.6188 8.84597C38.1414 8.66863 38.6921 8.57997 39.2708 8.57997C40.2228 8.57997 40.9554 8.81797 41.4688 9.29397C41.9914 9.76063 42.2528 10.4746 42.2528 11.436V16H41.3008ZM38.7668 16.07C38.2161 16.07 37.7354 15.9813 37.3248 15.804C36.9234 15.6173 36.6154 15.3653 36.4008 15.048C36.1861 14.7213 36.0788 14.348 36.0788 13.928C36.0788 13.5453 36.1674 13.2 36.3448 12.892C36.5314 12.5746 36.8301 12.3226 37.2408 12.136C37.6608 11.94 38.2208 11.842 38.9208 11.842H41.4548V12.584H38.9488C38.2394 12.584 37.7448 12.71 37.4648 12.962C37.1941 13.214 37.0588 13.5266 37.0588 13.9C37.0588 14.32 37.2221 14.656 37.5488 14.908C37.8754 15.16 38.3328 15.286 38.9208 15.286C39.4808 15.286 39.9614 15.16 40.3628 14.908C40.7734 14.6466 41.0721 14.2733 41.2588 13.788L41.4828 14.474C41.2961 14.9593 40.9694 15.3466 40.5028 15.636C40.0454 15.9253 39.4668 16.07 38.7668 16.07Z" fill="white"></path> <path d="M44.8989 16V8.64997H45.8929V11.898H50.5269V8.64997H51.5209V16H50.5269V12.752H45.8929V16H44.8989Z" fill="white"></path> <path d="M57.3701 16.07C56.6608 16.07 56.0215 15.9113 55.4521 15.594C54.8921 15.2673 54.4488 14.824 54.1221 14.264C53.7955 13.6946 53.6321 13.046 53.6321 12.318C53.6321 11.5806 53.7955 10.932 54.1221 10.372C54.4488 9.81197 54.8921 9.3733 55.4521 9.05597C56.0121 8.73863 56.6515 8.57997 57.3701 8.57997C58.0981 8.57997 58.7421 8.73863 59.3021 9.05597C59.8715 9.3733 60.3148 9.81197 60.6321 10.372C60.9588 10.932 61.1221 11.5806 61.1221 12.318C61.1221 13.046 60.9588 13.6946 60.6321 14.264C60.3148 14.824 59.8715 15.2673 59.3021 15.594C58.7328 15.9113 58.0888 16.07 57.3701 16.07ZM57.3701 15.188C57.9021 15.188 58.3735 15.0713 58.7841 14.838C59.1948 14.5953 59.5168 14.2593 59.7501 13.83C59.9928 13.3913 60.1141 12.8873 60.1141 12.318C60.1141 11.7393 59.9928 11.2353 59.7501 10.806C59.5168 10.3766 59.1948 10.0453 58.7841 9.81197C58.3735 9.5693 57.9068 9.44797 57.3841 9.44797C56.8615 9.44797 56.3948 9.5693 55.9841 9.81197C55.5735 10.0453 55.2468 10.3766 55.0041 10.806C54.7615 11.2353 54.6401 11.7393 54.6401 12.318C54.6401 12.8873 54.7615 13.3913 55.0041 13.83C55.2468 14.2593 55.5735 14.5953 55.9841 14.838C56.3948 15.0713 56.8568 15.188 57.3701 15.188Z" fill="white"></path> <path d="M103.658 16V6.19995H105.058V16H103.658Z" fill="white"></path> <path d="M107.992 16V6.19995H109.14L115.622 14.25H115.02V6.19995H116.42V16H115.272L108.79 7.94995H109.392V16H107.992Z" fill="white"></path> <path d="M117.87 16L122.308 6.19995H123.694L128.146 16H126.676L122.714 6.98395H123.274L119.312 16H117.87ZM119.76 13.55L120.138 12.43H125.654L126.06 13.55H119.76Z" fill="white"></path> <path d="M131.342 16L128.066 6.19995H129.508L132.518 15.244H131.79L134.912 6.19995H136.2L139.252 15.244H138.552L141.604 6.19995H142.934L139.658 16H138.188L135.332 7.61395H135.71L132.84 16H131.342Z" fill="white"></path> <path d="M145.92 10.428H150.96V11.618H145.92V10.428ZM146.046 14.782H151.758V16H144.646V6.19995H151.562V7.41795H146.046V14.782Z" fill="white"></path> <path d="M154.025 16V6.19995H158.421C159.551 6.19995 160.419 6.42862 161.025 6.88595C161.632 7.33395 161.935 7.94995 161.935 8.73395C161.935 9.26595 161.814 9.71395 161.571 10.078C161.338 10.442 161.021 10.722 160.619 10.918C160.218 11.114 159.784 11.212 159.317 11.212L159.569 10.792C160.129 10.792 160.624 10.89 161.053 11.086C161.483 11.282 161.823 11.5713 162.075 11.954C162.327 12.3273 162.453 12.794 162.453 13.354C162.453 14.194 162.136 14.8473 161.501 15.314C160.876 15.7713 159.943 16 158.701 16H154.025ZM155.425 14.866H158.645C159.42 14.866 160.013 14.7353 160.423 14.474C160.834 14.2126 161.039 13.802 161.039 13.242C161.039 12.6726 160.834 12.2573 160.423 11.996C160.013 11.7346 159.42 11.604 158.645 11.604H155.299V10.47H158.295C159.005 10.47 159.555 10.3393 159.947 10.078C160.339 9.81662 160.535 9.42462 160.535 8.90195C160.535 8.37928 160.339 7.98728 159.947 7.72595C159.555 7.46462 159.005 7.33395 158.295 7.33395H155.425V14.866Z" fill="white"></path> </svg> 